<?xml version="1.0" encoding="UTF-8" standalone="no"?>
<svg width="64" height="64" viewBox="0 0 512 512" fill="none" xmlns="http://www.w3.org/2000/svg">
  <!-- Background circle -->
  <circle cx="256" cy="256" r="248" fill="#4F4A85" />
  <circle cx="256" cy="256" r="230" fill="#383351" />
  
  <!-- Audio waveform -->
  <path d="M96 256 L128 200 L160 300 L192 180 L224 320 L256 150 L288 350 L320 200 L352 280 L384 220 L416 256" 
        stroke="#FFFFFF" stroke-width="12" stroke-linecap="round" stroke-linejoin="round" fill="none" />
  
  <!-- Scissors icon -->
  <g transform="translate(220, 380) scale(0.08)">
    <path d="M228,154.9c0-14.9-12-26.9-26.9-26.9c-14.9,0-26.9,12-26.9,26.9s12,26.9,26.9,26.9
      C216,181.8,228,169.8,228,154.9z M249.8,281.3c0,14.9,12,26.9,26.9,26.9c14.9,0,26.9-12,26.9-26.9s-12-26.9-26.9-26.9
      C261.9,254.4,249.8,266.4,249.8,281.3z M431.2,179.1L301.7,291.9l129.5,112.8c7.4,6.4,8.1,17.6,1.7,25
      c-6.4,7.4-17.6,8.1-25,1.7L269.3,308.3c-13.6,11.4-33.2,12.2-47.6,2.3c-1.3-0.9-2.5-1.9-3.7-2.9L79.4,431.4
      c-7.4,6.4-18.6,5.7-25-1.7c-6.4-7.4-5.7-18.6,1.7-25l129.5-112.8L56.1,179.1c-7.4-6.4-8.1-17.6-1.7-25
      c6.4-7.4,17.6-8.1,25-1.7l138.7,120.8c13.6-11.4,33.2-12.2,47.6-2.3c1.3,0.9,2.5,1.9,3.7,2.9l138.7-120.8
      c7.4-6.4,18.6-5.7,25,1.7C439.3,161.5,438.6,172.7,431.2,179.1z" fill="#FFFFFF"/>
  </g>
  
  <!-- Outer ring -->
  <circle cx="256" cy="256" r="248" stroke="#4F4A85" stroke-width="16" fill="none" />
</svg>
